HIERARCHY
ROOT hip
{
  OFFSET 0 0 0
  CHANNELS 6 Xposition Yposition Zposition Zrotation Yrotation Xrotation
  JOINT abdomen
  {
    OFFSET 0 20.6881 -0.73152
    CHANNELS 3 Zrotation Xrotation Yrotation
    JOINT chest
    {
      OFFSET 0 11.7043 -0.48768
      CHANNELS 3 Zrotation Xrotation Yrotation
      JOINT neck
      {
        OFFSET 0 22.1894 -2.19456
        CHANNELS 3 Zrotation Xrotation Yrotation
        JOINT head
        {
          OFFSET -0.24384 7.07133 1.2192
          CHANNELS 3 Zrotation Xrotation Yrotation
          JOINT leftEye
          {
            OFFSET 4.14528 8.04674 8.04672
            CHANNELS 3 Zrotation Xrotation Yrotation
            End Site
            {
              OFFSET 1 0 0
            }
          }
          JOINT rightEye
          {
            OFFSET -3.6576 8.04674 8.04672
            CHANNELS 3 Zrotation Xrotation Yrotation
            End Site
            {
              OFFSET 1 0 0
            }
          }
        }
      }
      JOINT rCollar
      {
        OFFSET -2.68224 19.2634 -4.8768
        CHANNELS 3 Zrotation Xrotation Yrotation
        JOINT rShldr
        {
          OFFSET -8.77824 -1.95073 1.46304
          CHANNELS 3 Zrotation Xrotation Yrotation
          JOINT rForeArm
          {
            OFFSET -28.1742 -1.7115 0.48768
            CHANNELS 3 Zrotation Xrotation Yrotation
            JOINT rHand
            {
              OFFSET -22.5879 0.773209 7.07136
              CHANNELS 3 Zrotation Xrotation Yrotation
              JOINT rThumb1
              {
                OFFSET -1.2192 -0.487915 3.41376
                CHANNELS 3 Zrotation Xrotation Yrotation
                JOINT rThumb2
                {
                  OFFSET -3.37035 -0.52449 3.41376
                  CHANNELS 3 Zrotation Xrotation Yrotation
                  End Site
                  {
                    OFFSET -1.78271 -1.18214 1.43049
                  }
                }
              }
              JOINT rIndex1
              {
                OFFSET -7.75947 0.938293 5.60832
                CHANNELS 3 Zrotation Xrotation Yrotation
                JOINT rIndex2
                {
                  OFFSET -2.54057 -0.884171 1.56538
                  CHANNELS 3 Zrotation Xrotation Yrotation
                  End Site
                  {
                    OFFSET -1.62519 -0.234802 1.16502
                  }
                }
              }
              JOINT rMid1
              {
                OFFSET -8.24714 1.18213 3.41376
                CHANNELS 3 Zrotation Xrotation Yrotation
                JOINT rMid2
                {
                  OFFSET -3.10165 -0.590103 1.0647
                  CHANNELS 3 Zrotation Xrotation Yrotation
                  End Site
                  {
                    OFFSET -2.48547 -0.328903 0.83742
                  }
                }
              }
              JOINT rRing1
              {
                OFFSET -8.82822 0.546677 1.51678
                CHANNELS 3 Zrotation Xrotation Yrotation
                JOINT rRing2
                {
                  OFFSET -2.60934 -0.819778 -0.0198488
                  CHANNELS 3 Zrotation Xrotation Yrotation
                  End Site
                  {
                    OFFSET -2.33842 -0.294052 0.168128
                  }
                }
              }
              JOINT rPinky1
              {
                OFFSET -8.27202 -0.0477905 -0.4584
                CHANNELS 3 Zrotation Xrotation Yrotation
                JOINT rPinky2
                {
                  OFFSET -1.82734 -0.647385 -0.700984
                  CHANNELS 3 Zrotation Xrotation Yrotation
                  End Site
                  {
                    OFFSET -1.69225 -0.51767 -0.607171
                  }
                }
              }
            }
          }
        }
      }
      JOINT lCollar
      {
        OFFSET 2.68224 19.2634 -4.8768
        CHANNELS 3 Zrotation Xrotation Yrotation
        JOINT lShldr
        {
          OFFSET 8.77824 -1.95073 1.46304
          CHANNELS 3 Zrotation Xrotation Yrotation
          JOINT lForeArm
          {
            OFFSET 28.1742 -1.7115 0.48768
            CHANNELS 3 Zrotation Xrotation Yrotation
            JOINT lHand
            {
              OFFSET 22.5879 0.773209 7.07136
              CHANNELS 3 Zrotation Xrotation Yrotation
              JOINT lThumb1
              {
                OFFSET 1.2192 -0.487915 3.41376
                CHANNELS 3 Zrotation Xrotation Yrotation
                JOINT lThumb2
                {
                  OFFSET 3.37035 -0.52449 3.41376
                  CHANNELS 3 Zrotation Xrotation Yrotation
                  End Site
                  {
                    OFFSET 1.78271 -1.18214 1.43049
                  }
                }
              }
              JOINT lIndex1
              {
                OFFSET 7.75947 0.938293 5.60832
                CHANNELS 3 Zrotation Xrotation Yrotation
                JOINT lIndex2
                {
                  OFFSET 2.54057 -0.884171 1.56538
                  CHANNELS 3 Zrotation Xrotation Yrotation
                  End Site
                  {
                    OFFSET 1.62519 -0.234802 1.16502
                  }
                }
              }
              JOINT lMid1
              {
                OFFSET 8.24714 1.18213 3.41376
                CHANNELS 3 Zrotation Xrotation Yrotation
                JOINT lMid2
                {
                  OFFSET 3.10165 -0.590103 1.0647
                  CHANNELS 3 Zrotation Xrotation Yrotation
                  End Site
                  {
                    OFFSET 2.48547 -0.328903 0.83742
                  }
                }
              }
              JOINT lRing1
              {
                OFFSET 8.82822 0.546677 1.51678
                CHANNELS 3 Zrotation Xrotation Yrotation
                JOINT lRing2
                {
                  OFFSET 2.60934 -0.819778 -0.0198488
                  CHANNELS 3 Zrotation Xrotation Yrotation
                  End Site
                  {
                    OFFSET 2.33842 -0.294052 0.168128
                  }
                }
              }
              JOINT lPinky1
              {
                OFFSET 8.27202 -0.0477905 -0.4584
                CHANNELS 3 Zrotation Xrotation Yrotation
                JOINT lPinky2
                {
                  OFFSET 1.82734 -0.647385 -0.700984
                  CHANNELS 3 Zrotation Xrotation Yrotation
                  End Site
                  {
                    OFFSET 1.69225 -0.51767 -0.607171
                  }
                }
              }
            }
          }
        }
      }
    }
  }
  JOINT rButtock
  {
    OFFSET -8.77824 4.35084 1.2192
    CHANNELS 3 Zrotation Xrotation Yrotation
    JOINT rThigh
    {
      OFFSET 0 -1.70687 -2.19456
      CHANNELS 3 Zrotation Xrotation Yrotation
      JOINT rShin
      {
        OFFSET 0 -36.8199 0.73152
        CHANNELS 3 Zrotation Xrotation Yrotation
        JOINT rFoot
        {
          OFFSET 0.73152 -45.1104 -5.12064
          CHANNELS 3 Zrotation Xrotation Yrotation
          End Site
          {
            OFFSET -1.1221 -3.69964 12.103
          }
        }
      }
    }
  }
  JOINT lButtock
  {
    OFFSET 8.77824 4.35084 1.2192
    CHANNELS 3 Zrotation Xrotation Yrotation
    JOINT lThigh
    {
      OFFSET 0 -1.70687 -2.19456
      CHANNELS 3 Zrotation Xrotation Yrotation
      JOINT lShin
      {
        OFFSET 0 -36.8199 0.73152
        CHANNELS 3 Zrotation Xrotation Yrotation
        JOINT lFoot
        {
          OFFSET -0.73152 -45.1104 -5.12064
          CHANNELS 3 Zrotation Xrotation Yrotation
          End Site
          {
            OFFSET 1.1221 -3.69964 12.103
          }
        }
      }
    }
  }
}
MOTION
Frames:	6
Frame Time:	0.00833333
50.0975 83.4931 -0.513798 289.056 104.525 288.522 -17.9933 4.6204 -5.18436 7.71781 -0.0185475 -1.48136 3.5422 -7.08 2.26231 -2.46657 -5.30252 3.00075 -0.0 0.0 0.0 -0.0 0.0 0.0 2.20211e-13 -6.36069e-12 1.31792e-14 88.1412 29.4604 -19.3974 -14.0724 -7.01309 25.7002 -0.00430436 1.89076 0.265824 2.2852e-10 2.6431e-10 -1.3263e-09 3.95209e-10 4.58749e-10 -2.29467e-09 2.28529e-10 2.64314e-10 -1.32631e-09 7.73091 5.47488 0.417314 2.28522e-10 2.64312e-10 -1.3263e-09 2.90554 0.965183 0.102902 2.28529e-10 2.64313e-10 -1.3263e-09 10.2786 0.731801 0.0259123 2.28518e-10 2.64312e-10 -1.32629e-09 2.22167 -0.733487 -0.20892 2.20288e-13 -6.36069e-12 1.29975e-14 -55.8652 52.7998 -28.0866 18.7756 -11.5454 -35.7846 0.00411888 -1.83397 0.257837 -1.00436e-09 2.63015e-10 -4.08177e-10 -1.73135e-09 4.55599e-10 -7.04999e-10 -1.00437e-09 2.63014e-10 -4.0818e-10 -7.73091 5.47488 -0.417314 -1.00436e-09 2.63016e-10 -4.08187e-10 -2.90554 0.965183 -0.102902 -1.00436e-09 2.63017e-10 -4.08185e-10 -10.2786 0.731801 -0.0259123 -1.00436e-09 2.63021e-10 -4.08189e-10 -2.22167 -0.733487 0.20892 -2.03217e-16 0.0 -3.88251e-19 -22.006 -27.6915 -8.78485 -0.0691537 12.6903 -0.277603 -0.464924 -8.16013 0.0727618 2.03217e-16 0.0 3.88251e-19 -16.3186 19.5687 2.539 0.0385159 1.34852 0.257839 0.814863 -15.3937 1.16337
50.8291 83.3743 -0.476591 289.439 104.408 289.007 -17.8186 4.56672 -5.23111 7.72668 -0.0476836 -1.48837 3.54613 -7.14092 2.2459 -2.50232 -5.32907 2.95981 -0.0 0.0 0.0 -0.0 0.0 0.0 2.46817e-13 -6.56115e-12 -1.28278e-15 88.1147 29.5421 -19.4364 -14.0655 -7.00742 25.6861 -0.00524734 2.09044 0.29392 9.03629e-10 2.96376e-10 -2.09136e-09 1.55877e-09 5.15305e-10 -3.62099e-09 9.03638e-10 2.96381e-10 -2.09137e-09 7.73091 5.47488 0.417314 9.03631e-10 2.96379e-10 -2.09136e-09 2.90554 0.965183 0.102902 9.03639e-10 2.9638e-10 -2.09136e-09 10.2786 0.731801 0.0259123 9.03627e-10 2.96379e-10 -2.09135e-09 2.22167 -0.733487 -0.20892 2.46905e-13 -6.56115e-12 -1.4443e-15 -56.2597 53.2736 -27.7452 18.7046 -11.4645 -35.6213 0.00385111 -1.77452 0.249472 -1.22998e-09 7.32925e-10 -6.68245e-10 -2.11812e-09 1.26902e-09 -1.15525e-09 -1.22999e-09 7.32927e-10 -6.68246e-10 -7.73091 5.47488 -0.417314 -1.22998e-09 7.32929e-10 -6.68255e-10 -2.90554 0.965183 -0.102902 -1.22998e-09 7.32929e-10 -6.68253e-10 -10.2786 0.731801 -0.0259123 -1.22998e-09 7.32931e-10 -6.6826e-10 -2.22167 -0.733487 0.20892 -2.03217e-16 0.0 -3.88251e-19 -21.7533 -27.4417 -8.45335 -0.0695234 13.2721 -0.268707 -0.6443 -7.8198 -0.995524 2.03217e-16 0.0 3.88251e-19 -16.2243 19.9289 1.97028 0.0367582 1.50502 0.238455 0.940771 -15.4749 1.52645
51.5848 83.2835 -0.460677 289.84 104.452 289.488 -17.6375 4.51445 -5.26728 7.73138 -0.0664043 -1.49298 3.56065 -7.20513 2.22992 -2.54744 -5.35038 2.91489 -0.0 0.0 0.0 -0.0 0.0 0.0 2.74543e-13 -6.8607e-12 -6.9035e-15 88.0612 29.61 -19.4366 -14.0508 -6.99556 25.6566 -0.00643872 2.303 0.323839 1.35269e-09 2.52445e-10 -2.63065e-09 2.33227e-09 4.39869e-10 -4.5557e-09 1.3527e-09 2.52451e-10 -2.63066e-09 7.73091 5.47488 0.417314 1.3527e-09 2.52448e-10 -2.63065e-09 2.90554 0.965183 0.102902 1.3527e-09 2.52449e-10 -2.63065e-09 10.2786 0.731801 0.0259123 1.35269e-09 2.52449e-10 -2.63065e-09 2.22167 -0.733487 -0.20892 2.74627e-13 -6.86071e-12 -7.05103e-15 -56.7052 53.7441 -27.3328 18.6308 -11.3811 -35.4518 0.00359615 -1.71396 0.240954 -1.36716e-09 1.11824e-09 -9.20283e-10 -2.35263e-09 1.93614e-09 -1.59169e-09 -1.36716e-09 1.11825e-09 -9.20282e-10 -7.73091 5.47488 -0.417314 -1.36715e-09 1.11825e-09 -9.20293e-10 -2.90554 0.965183 -0.102902 -1.36716e-09 1.11825e-09 -9.20292e-10 -10.2786 0.731801 -0.0259123 -1.36715e-09 1.11825e-09 -9.20301e-10 -2.22167 -0.733487 0.20892 -2.03217e-16 0.0 -3.88251e-19 -21.523 -27.1473 -8.24819 -0.0700915 13.8185 -0.261411 -0.803817 -7.32049 -2.04217 2.03217e-16 0.0 3.88251e-19 -16.1182 20.3142 1.41955 0.0351847 1.66021 0.220224 1.06454 -15.4996 1.88429
52.386 83.2182 -0.411874 290.831 104.375 290.5 -17.3869 4.44055 -5.29388 7.71521 -0.0723115 -1.49482 3.59632 -7.26225 2.23141 -2.61259 -5.37665 2.89553 -0.0 0.0 0.0 -0.0 0.0 0.0 3.23606e-13 -8.08905e-12 9.24349e-15 87.9998 29.6719 -19.4143 -14.0326 -6.98084 25.6198 -0.00758609 2.48605 0.349613 9.02893e-10 8.56841e-11 -2.63553e-09 1.5544e-09 1.50386e-10 -4.56217e-09 9.02901e-10 8.56901e-11 -2.63554e-09 7.73091 5.47488 0.417314 9.02893e-10 8.56865e-11 -2.63553e-09 2.90554 0.965183 0.102902 9.02903e-10 8.56877e-11 -2.63553e-09 10.2786 0.731801 0.0259123 9.02889e-10 8.56877e-11 -2.63553e-09 2.22167 -0.733487 -0.20892 3.23658e-13 -8.08906e-12 9.0944e-15 -57.2046 54.1877 -26.8654 18.5485 -11.2888 -35.2625 0.00342521 -1.67087 0.234893 -1.47388e-09 1.12107e-09 -1.12363e-09 -2.53678e-09 1.94151e-09 -1.94393e-09 -1.47387e-09 1.12108e-09 -1.12362e-09 -7.73091 5.47488 -0.417314 -1.47387e-09 1.12108e-09 -1.12364e-09 -2.90554 0.965183 -0.102902 -1.47388e-09 1.12108e-09 -1.12364e-09 -10.2786 0.731801 -0.0259123 -1.47387e-09 1.12108e-09 -1.12365e-09 -2.22167 -0.733487 0.20892 -2.03217e-16 0.0 -3.88251e-19 -21.3235 -26.822 -8.25514 -0.0709974 14.1323 -0.260775 -0.899275 -6.59235 -2.85339 2.03217e-16 0.0 3.88251e-19 -15.9492 20.6975 0.896464 0.0342994 1.82334 0.207714 1.18304 -15.4677 2.23052
53.1981 83.1664 -0.325893 291.908 104.13 291.595 -17.0755 4.33244 -5.31137 7.67329 -0.0564551 -1.49411 3.66532 -7.31386 2.25624 -2.70717 -5.40409 2.90806 -0.0 0.0 0.0 -0.0 0.0 0.0 4.30506e-13 -1.14241e-11 6.73418e-14 87.9453 29.7325 -19.3775 -14.0109 -6.96327 25.576 -0.00846866 2.6183 0.368239 -1.24056e-09 -3.29956e-10 -1.75227e-09 -2.14699e-09 -5.72623e-10 -3.0251e-09 -1.24055e-09 -3.2995e-10 -1.75229e-09 7.73091 5.47488 0.417314 -1.24056e-09 -3.29953e-10 -1.75227e-09 2.90554 0.965183 0.102902 -1.24055e-09 -3.29953e-10 -1.75228e-09 10.2786 0.731801 0.0259123 -1.24056e-09 -3.29953e-10 -1.75227e-09 2.22167 -0.733487 -0.20892 4.30472e-13 -1.14241e-11 6.71648e-14 -57.7286 54.6072 -26.3656 18.4606 -11.1904 -35.0622 0.00345693 -1.67227 0.235091 -1.59543e-09 4.59091e-10 -1.30575e-09 -2.75034e-09 7.96818e-10 -2.25958e-09 -1.59543e-09 4.59097e-10 -1.30574e-09 -7.73091 5.47488 -0.417314 -1.59543e-09 4.59098e-10 -1.30576e-09 -2.90554 0.965183 -0.102902 -1.59543e-09 4.59096e-10 -1.30575e-09 -10.2786 0.731801 -0.0259123 -1.59543e-09 4.59097e-10 -1.30577e-09 -2.22167 -0.733487 0.20892 -2.03217e-16 0.0 -3.88251e-19 -21.208 -26.4522 -8.57248 -0.0722975 14.0758 -0.270612 -0.920584 -5.48254 -3.42518 2.03217e-16 0.0 3.88251e-19 -15.7379 21.0927 0.405644 0.0343698 1.9693 0.204443 1.29468 -15.38 2.56278
53.9875 83.1152 -0.235631 292.405 103.874 292.168 -16.7283 4.20453 -5.31919 7.61465 -0.0228842 -1.49095 3.75899 -7.36406 2.29488 -2.82326 -5.42943 2.93725 -0.0 0.0 0.0 -0.0 0.0 0.0 5.7409e-13 -1.61045e-11 1.54918e-13 87.8841 29.7868 -19.3162 -13.9838 -6.94135 25.5214 -0.00920425 2.72567 0.383365 -4.51369e-09 -9.31644e-10 -2.35963e-10 -7.79837e-09 -1.61953e-09 -3.88105e-10 -4.51368e-09 -9.31638e-10 -2.3599e-10 7.73091 5.47488 0.417314 -4.51369e-09 -9.31641e-10 -2.35965e-10 2.90554 0.965183 0.102902 -4.51368e-09 -9.31642e-10 -2.35967e-10 10.2786 0.731801 0.0259123 -4.5137e-09 -9.31642e-10 -2.3596e-10 2.22167 -0.733487 -0.20892 5.7393e-13 -1.61045e-11 1.54695e-13 -58.2879 55.0113 -25.8164 18.3685 -11.0877 -34.8539 0.00361358 -1.7009 0.239119 -1.69096e-09 -6.41194e-10 -1.47556e-09 -2.92144e-09 -1.10607e-09 -2.55405e-09 -1.69096e-09 -6.41189e-10 -1.47556e-09 -7.73091 5.47488 -0.417314 -1.69096e-09 -6.41189e-10 -1.47557e-09 -2.90554 0.965183 -0.102902 -1.69096e-09 -6.4119e-10 -1.47557e-09 -10.2786 0.731801 -0.0259123 -1.69095e-09 -6.41189e-10 -1.47558e-09 -2.22167 -0.733487 0.20892 -2.03217e-16 0.0 -3.88251e-19 -21.1463 -26.0359 -9.12562 -0.0739759 13.7826 -0.287374 -0.885803 -4.07499 -3.85534 2.03217e-16 0.0 3.88251e-19 -15.5002 21.5074 -0.0588024 0.0350018 2.10233 0.207208 1.39961 -15.2363 2.88422
